<svg width="16" height="17" viewBox="0 0 16 17" fill="none" xmlns="http://www.w3.org/2000/svg">
<path d="M16 8.46674C16 7.78573 15.9455 7.28876 15.8277 6.7734H8.1636V9.84718H12.6622C12.5716 10.6111 12.0818 11.7614 10.9934 12.5345L10.9781 12.6374L13.4014 14.5422L13.5693 14.5592C15.1111 13.1143 16 10.9884 16 8.46674Z" fill="#4285F4"/>
<path d="M8.16292 16.5655C10.3669 16.5655 12.2171 15.8292 13.5686 14.5593L10.9927 12.5345C10.3034 13.0223 9.37826 13.3628 8.16292 13.3628C6.00429 13.3628 4.17219 11.918 3.51909 9.92092L3.42336 9.92917L0.903644 11.9078L0.870692 12.0008C2.21302 14.7065 4.97028 16.5655 8.16292 16.5655Z" fill="#34A853"/>
<path d="M3.51909 9.92096C3.34676 9.40559 3.24703 8.85337 3.24703 8.28281C3.24703 7.71218 3.34676 7.16002 3.51002 6.64466L3.50546 6.5349L0.954164 4.52445L0.87069 4.56474C0.31745 5.68752 0 6.94837 0 8.28281C0 9.61725 0.31745 10.878 0.87069 12.0008L3.51909 9.92096Z" fill="#FBBC05"/>
<path d="M8.16292 3.20264C9.69571 3.20264 10.7297 3.87446 11.3192 4.43589L13.623 2.15351C12.2081 0.819075 10.3669 0 8.16292 0C4.97028 0 2.21302 1.859 0.870692 4.56468L3.51002 6.6446C4.17219 4.64754 6.00429 3.20264 8.16292 3.20264Z" fill="#EB4335"/>
</svg>
