<svg width="24" height="24" viewBox="0 0 24 24" fill="none" xmlns="http://www.w3.org/2000/svg">
<path d="M12.119 15.6C14.0023 15.6 15.529 14.0733 15.529 12.19C15.529 10.3067 14.0023 8.78003 12.119 8.78003C10.2357 8.78003 8.70898 10.3067 8.70898 12.19C8.70898 14.0733 10.2357 15.6 12.119 15.6Z" stroke="#969696" stroke-width="1.2" stroke-miterlimit="10" stroke-linecap="round" stroke-linejoin="round"/>
<path d="M12.1196 17.78C17.3774 17.78 21.6396 15.2772 21.6396 12.19C21.6396 9.1027 17.3774 6.59998 12.1196 6.59998C6.86186 6.59998 2.59961 9.1027 2.59961 12.19C2.59961 15.2772 6.86186 17.78 12.1196 17.78Z" stroke="#969696" stroke-width="1.2" stroke-miterlimit="10" stroke-linecap="round" stroke-linejoin="round"/>
<path d="M2.64645 20.6464C2.45118 20.8417 2.45118 21.1583 2.64645 21.3536C2.84171 21.5488 3.15829 21.5488 3.35355 21.3536L2.64645 20.6464ZM21.3536 3.35355C21.5488 3.15829 21.5488 2.84171 21.3536 2.64645C21.1583 2.45118 20.8417 2.45118 20.6464 2.64645L21.3536 3.35355ZM3.35355 21.3536C3.37072 21.3364 3.38784 21.3193 3.40494 21.3022C3.42204 21.2851 3.43911 21.268 3.45614 21.251C3.47318 21.2339 3.49018 21.2169 3.50715 21.2C3.52412 21.183 3.54106 21.166 3.55797 21.1491C3.57488 21.1322 3.59176 21.1154 3.6086 21.0985C3.62545 21.0817 3.64226 21.0648 3.65905 21.0481C3.67583 21.0313 3.69258 21.0145 3.7093 20.9978C3.72603 20.9811 3.74272 20.9644 3.75937 20.9477C3.77603 20.9311 3.79266 20.9144 3.80926 20.8978C3.82586 20.8812 3.84243 20.8647 3.85896 20.8481C3.8755 20.8316 3.892 20.8151 3.90848 20.7986C3.92495 20.7822 3.9414 20.7657 3.95781 20.7493C3.97423 20.7329 3.99061 20.7165 4.00696 20.7001C4.02332 20.6838 4.03964 20.6675 4.05593 20.6512C4.07223 20.6349 4.08849 20.6186 4.10472 20.6024C4.12096 20.5862 4.13716 20.5699 4.15333 20.5538C4.16951 20.5376 4.18565 20.5215 4.20176 20.5053C4.21788 20.4892 4.23396 20.4731 4.25001 20.4571C4.26607 20.441 4.28209 20.425 4.29809 20.409C4.31408 20.393 4.33005 20.3771 4.34598 20.3611C4.36192 20.3452 4.37782 20.3293 4.3937 20.3134C4.40958 20.2975 4.42543 20.2817 4.44125 20.2659C4.45706 20.25 4.47285 20.2343 4.48861 20.2185C4.50437 20.2027 4.52011 20.187 4.53581 20.1713C4.55151 20.1556 4.56719 20.1399 4.58283 20.1243C4.59848 20.1086 4.61409 20.093 4.62968 20.0774C4.64527 20.0618 4.66083 20.0463 4.67636 20.0308C4.69189 20.0152 4.70739 19.9997 4.72286 19.9842C4.73833 19.9688 4.75378 19.9533 4.7692 19.9379C4.78461 19.9225 4.8 19.9071 4.81536 19.8917C4.83072 19.8764 4.84605 19.8611 4.86136 19.8457C4.87666 19.8304 4.89194 19.8152 4.90719 19.7999C4.92243 19.7847 4.93766 19.7695 4.95285 19.7543C4.96804 19.7391 4.9832 19.7239 4.99834 19.7088C5.01348 19.6936 5.02859 19.6785 5.04367 19.6634C5.05875 19.6484 5.07381 19.6333 5.08883 19.6183C5.10386 19.6032 5.11886 19.5882 5.13383 19.5733C5.1488 19.5583 5.16375 19.5434 5.17867 19.5284C5.19358 19.5135 5.20848 19.4986 5.22334 19.4838C5.2382 19.4689 5.25304 19.4541 5.26785 19.4393C5.28266 19.4244 5.29744 19.4097 5.3122 19.3949C5.32695 19.3802 5.34168 19.3654 5.35638 19.3507C5.37109 19.336 5.38576 19.3213 5.40041 19.3067C5.41506 19.292 5.42968 19.2774 5.44428 19.2628C5.45888 19.2482 5.47345 19.2337 5.48799 19.2191C5.50253 19.2046 5.51705 19.1901 5.53154 19.1756C5.54603 19.1611 5.5605 19.1466 5.57494 19.1322C5.58938 19.1177 5.60379 19.1033 5.61818 19.0889C5.63256 19.0745 5.64693 19.0602 5.66126 19.0458C5.6756 19.0315 5.68991 19.0172 5.70419 19.0029C5.71847 18.9886 5.73273 18.9744 5.74696 18.9601C5.7612 18.9459 5.7754 18.9317 5.78959 18.9175C5.80377 18.9033 5.81792 18.8892 5.83206 18.8751C5.84619 18.8609 5.86029 18.8468 5.87437 18.8327C5.88845 18.8187 5.90251 18.8046 5.91654 18.7906C5.93057 18.7765 5.94458 18.7625 5.95856 18.7486C5.97254 18.7346 5.98649 18.7206 6.00042 18.7067C6.01435 18.6928 6.02826 18.6788 6.04214 18.665C6.05602 18.6511 6.06988 18.6372 6.08371 18.6234C6.09754 18.6096 6.11135 18.5958 6.12513 18.582C6.13892 18.5682 6.15268 18.5544 6.16641 18.5407C6.18014 18.527 6.19385 18.5133 6.20754 18.4996C6.22123 18.4859 6.23489 18.4722 6.24853 18.4586C6.26216 18.4449 6.27578 18.4313 6.28937 18.4177C6.30296 18.4042 6.31652 18.3906 6.33006 18.377C6.34361 18.3635 6.35712 18.35 6.37062 18.3365C6.38411 18.323 6.39758 18.3095 6.41103 18.2961C6.42448 18.2826 6.4379 18.2692 6.4513 18.2558C6.4647 18.2424 6.47808 18.229 6.49143 18.2157C6.50479 18.2023 6.51812 18.189 6.53143 18.1757C6.54473 18.1624 6.55802 18.1491 6.57128 18.1358C6.58454 18.1226 6.59778 18.1093 6.61099 18.0961C6.62421 18.0829 6.6374 18.0697 6.65057 18.0565C6.66374 18.0434 6.67688 18.0302 6.69001 18.0171C6.70313 18.004 6.71623 17.9909 6.72931 17.9778C6.74239 17.9647 6.75545 17.9517 6.76848 17.9386C6.78151 17.9256 6.79453 17.9126 6.80751 17.8996C6.8205 17.8866 6.83347 17.8736 6.84641 17.8607C6.85936 17.8477 6.87228 17.8348 6.88518 17.8219C6.89808 17.809 6.91096 17.7961 6.92382 17.7833C6.93667 17.7704 6.94951 17.7576 6.96232 17.7448C6.97513 17.732 6.98792 17.7192 7.00069 17.7064C7.01346 17.6936 7.02621 17.6809 7.03893 17.6682C7.05166 17.6554 7.06436 17.6427 7.07705 17.6301C7.08973 17.6174 7.10239 17.6047 7.11503 17.5921C7.12767 17.5794 7.14029 17.5668 7.15289 17.5542C7.16548 17.5416 7.17806 17.529 7.19062 17.5165C7.20317 17.5039 7.21571 17.4914 7.22822 17.4789C7.24073 17.4664 7.25323 17.4539 7.2657 17.4414C7.27817 17.4289 7.29062 17.4165 7.30305 17.4041C7.31548 17.3916 7.32789 17.3792 7.34028 17.3668C7.35267 17.3544 7.36504 17.3421 7.37738 17.3297C7.38973 17.3174 7.40206 17.305 7.41437 17.2927C7.42667 17.2804 7.43896 17.2681 7.45123 17.2559C7.46349 17.2436 7.47574 17.2314 7.48797 17.2191C7.50019 17.2069 7.5124 17.1947 7.52459 17.1825C7.53677 17.1703 7.54894 17.1582 7.56109 17.146C7.57323 17.1339 7.58536 17.1217 7.59747 17.1096C7.60957 17.0975 7.62166 17.0854 7.63373 17.0734C7.6458 17.0613 7.65785 17.0493 7.66988 17.0372C7.6819 17.0252 7.69391 17.0132 7.7059 17.0012C7.7179 16.9892 7.72987 16.9772 7.74182 16.9653C7.75377 16.9533 7.7657 16.9414 7.77762 16.9295C7.78953 16.9176 7.80142 16.9057 7.8133 16.8938C7.82517 16.8819 7.83703 16.8701 7.84887 16.8582C7.86071 16.8464 7.87253 16.8346 7.88433 16.8228C7.89613 16.811 7.90791 16.7992 7.91967 16.7874C7.93143 16.7757 7.94318 16.7639 7.95491 16.7522C7.96663 16.7405 7.97834 16.7288 7.99003 16.7171C8.00172 16.7054 8.01339 16.6937 8.02504 16.6821C8.03669 16.6704 8.04833 16.6588 8.05995 16.6472C8.07156 16.6355 8.08316 16.6239 8.09474 16.6124C8.10632 16.6008 8.11788 16.5892 8.12943 16.5777C8.14097 16.5661 8.1525 16.5546 8.16401 16.5431C8.17552 16.5316 8.18701 16.5201 8.19848 16.5086C8.20996 16.4971 8.22142 16.4857 8.23285 16.4743C8.24429 16.4628 8.25571 16.4514 8.26712 16.44C8.27852 16.4286 8.28991 16.4172 8.30128 16.4058C8.31265 16.3945 8.324 16.3831 8.33534 16.3718C8.34667 16.3604 8.35799 16.3491 8.36929 16.3378C8.38059 16.3265 8.39188 16.3152 8.40315 16.304C8.41441 16.2927 8.42567 16.2814 8.4369 16.2702C8.44813 16.259 8.45935 16.2478 8.47055 16.2366C8.48175 16.2254 8.49294 16.2142 8.50411 16.203C8.51527 16.1918 8.52643 16.1807 8.53756 16.1695C8.5487 16.1584 8.55981 16.1473 8.57092 16.1362C8.58202 16.1251 8.59311 16.114 8.60418 16.1029C8.61525 16.0919 8.6263 16.0808 8.63734 16.0698C8.64838 16.0587 8.6594 16.0477 8.67041 16.0367C8.68141 16.0257 8.6924 16.0147 8.70338 16.0037C8.71435 15.9928 8.72531 15.9818 8.73626 15.9708C8.7472 15.9599 8.75813 15.949 8.76904 15.9381C8.77996 15.9272 8.79085 15.9163 8.80174 15.9054C8.81262 15.8945 8.82348 15.8836 8.83434 15.8728C8.84519 15.8619 8.85602 15.8511 8.86684 15.8403C8.87767 15.8294 8.88847 15.8186 8.89926 15.8078C8.91005 15.7971 8.92083 15.7863 8.93159 15.7755C8.94235 15.7648 8.9531 15.754 8.96383 15.7433C8.97456 15.7325 8.98528 15.7218 8.99598 15.7111C9.00669 15.7004 9.01737 15.6897 9.02805 15.6791C9.03872 15.6684 9.04938 15.6577 9.06003 15.6471C9.07067 15.6364 9.0813 15.6258 9.09192 15.6152C9.10253 15.6046 9.11314 15.594 9.12372 15.5834C9.13431 15.5728 9.14489 15.5622 9.15545 15.5517C9.16601 15.5411 9.17655 15.5306 9.18708 15.52C9.19762 15.5095 9.20813 15.499 9.21864 15.4885C9.22914 15.478 9.23963 15.4675 9.25011 15.457C9.26059 15.4465 9.27105 15.4361 9.2815 15.4256C9.29195 15.4152 9.30239 15.4047 9.31281 15.3943C9.32324 15.3839 9.33365 15.3735 9.34405 15.3631C9.35444 15.3527 9.36483 15.3423 9.3752 15.3319C9.38557 15.3215 9.39593 15.3112 9.40627 15.3008C9.41662 15.2905 9.42695 15.2802 9.43727 15.2698C9.44758 15.2595 9.45789 15.2492 9.46818 15.2389C9.47848 15.2286 9.48876 15.2183 9.49903 15.2081C9.50929 15.1978 9.51955 15.1876 9.52979 15.1773C9.54004 15.1671 9.55027 15.1568 9.56049 15.1466C9.5707 15.1364 9.58091 15.1262 9.5911 15.116C9.6013 15.1058 9.61148 15.0956 9.62165 15.0855C9.63182 15.0753 9.64197 15.0651 9.65212 15.055C9.66227 15.0448 9.6724 15.0347 9.68252 15.0246C9.69264 15.0145 9.70275 15.0044 9.71285 14.9943C9.72295 14.9842 9.73303 14.9741 9.74311 14.964C9.75318 14.9539 9.76325 14.9439 9.7733 14.9338C9.78335 14.9238 9.79339 14.9137 9.80342 14.9037C9.81345 14.8937 9.82347 14.8836 9.83347 14.8736C9.84348 14.8636 9.85347 14.8536 9.86346 14.8436C9.87344 14.8337 9.88341 14.8237 9.89338 14.8137C9.90334 14.8038 9.91329 14.7938 9.92323 14.7839C9.93317 14.7739 9.9431 14.764 9.95302 14.7541C9.96294 14.7442 9.97285 14.7343 9.98274 14.7244C9.99264 14.7145 10.0025 14.7046 10.0124 14.6947C10.0223 14.6848 10.0321 14.675 10.042 14.6651C10.0519 14.6553 10.0617 14.6454 10.0715 14.6356C10.0814 14.6257 10.0912 14.6159 10.101 14.6061C10.1108 14.5963 10.1206 14.5865 10.1304 14.5767C10.1402 14.5669 10.15 14.5571 10.1598 14.5473C10.1696 14.5376 10.1793 14.5278 10.1891 14.518C10.1988 14.5083 10.2086 14.4985 10.2183 14.4888C10.228 14.4791 10.2378 14.4693 10.2475 14.4596C10.2572 14.4499 10.2669 14.4402 10.2766 14.4305C10.2863 14.4208 10.296 14.4111 10.3057 14.4014C10.3154 14.3918 10.325 14.3821 10.3347 14.3724C10.3443 14.3628 10.354 14.3531 10.3636 14.3435C10.3733 14.3338 10.3829 14.3242 10.3925 14.3146C10.4022 14.3049 10.4118 14.2953 10.4214 14.2857C10.431 14.2761 10.4406 14.2665 10.4502 14.2569C10.4598 14.2473 10.4694 14.2377 10.4789 14.2282C10.4885 14.2186 10.4981 14.209 10.5076 14.1995C10.5172 14.1899 10.5267 14.1804 10.5363 14.1708C10.5458 14.1613 10.5553 14.1518 10.5649 14.1422C10.5744 14.1327 10.5839 14.1232 10.5934 14.1137C10.6029 14.1042 10.6124 14.0947 10.6219 14.0852C10.6314 14.0757 10.6409 14.0662 10.6504 14.0567C10.6598 14.0473 10.6693 14.0378 10.6788 14.0283C10.6882 14.0189 10.6977 14.0094 10.7071 14C10.7166 13.9905 10.726 13.9811 10.7355 13.9717C10.7449 13.9622 10.7543 13.9528 10.7637 13.9434C10.7731 13.934 10.7825 13.9246 10.7919 13.9152C10.8014 13.9058 10.8107 13.8964 10.8201 13.887C10.8295 13.8776 10.8389 13.8682 10.8483 13.8588C10.8577 13.8495 10.867 13.8401 10.8764 13.8307C10.8857 13.8214 10.8951 13.812 10.9044 13.8027C10.9138 13.7933 10.9231 13.784 10.9325 13.7746C10.9418 13.7653 10.9511 13.756 10.9604 13.7467C10.9698 13.7373 10.9791 13.728 10.9884 13.7187C10.9977 13.7094 11.007 13.7001 11.0163 13.6908C11.0256 13.6815 11.0349 13.6722 11.0442 13.6629C11.0535 13.6537 11.0627 13.6444 11.072 13.6351C11.0813 13.6258 11.0905 13.6166 11.0998 13.6073C11.1091 13.598 11.1183 13.5888 11.1276 13.5795C11.1368 13.5703 11.1461 13.561 11.1553 13.5518C11.1645 13.5426 11.1738 13.5333 11.183 13.5241C11.1922 13.5149 11.2015 13.5057 11.2107 13.4964C11.2199 13.4872 11.2291 13.478 11.2383 13.4688C11.2475 13.4596 11.2567 13.4504 11.2659 13.4412C11.2751 13.432 11.2843 13.4228 11.2935 13.4136C11.3027 13.4044 11.3119 13.3953 11.321 13.3861C11.3302 13.3769 11.3394 13.3677 11.3485 13.3586C11.3577 13.3494 11.3669 13.3402 11.376 13.3311C11.3852 13.3219 11.3943 13.3128 11.4035 13.3036C11.4126 13.2945 11.4218 13.2853 11.4309 13.2762C11.4401 13.267 11.4492 13.2579 11.4583 13.2488C11.4675 13.2396 11.4766 13.2305 11.4857 13.2214C11.4949 13.2122 11.504 13.2031 11.5131 13.194C11.5222 13.1849 11.5313 13.1758 11.5404 13.1667C11.5495 13.1576 11.5587 13.1485 11.5678 13.1394C11.5769 13.1303 11.586 13.1212 11.595 13.1121C11.6041 13.103 11.6132 13.0939 11.6223 13.0848C11.6314 13.0757 11.6405 13.0666 11.6496 13.0575C11.6587 13.0484 11.6677 13.0394 11.6768 13.0303C11.6859 13.0212 11.695 13.0121 11.704 13.0031C11.7131 12.994 11.7222 12.9849 11.7312 12.9759C11.7403 12.9668 11.7493 12.9578 11.7584 12.9487C11.7675 12.9396 11.7765 12.9306 11.7856 12.9215C11.7946 12.9125 11.8037 12.9034 11.8127 12.8944C11.8218 12.8853 11.8308 12.8763 11.8399 12.8673C11.8489 12.8582 11.8579 12.8492 11.867 12.8401C11.876 12.8311 11.885 12.8221 11.8941 12.813C11.9031 12.804 11.9121 12.795 11.9212 12.7859C11.9302 12.7769 11.9392 12.7679 11.9483 12.7589C11.9573 12.7498 11.9663 12.7408 11.9753 12.7318C11.9843 12.7228 11.9934 12.7137 12.0024 12.7047C12.0114 12.6957 12.0204 12.6867 12.0294 12.6777C12.0385 12.6687 12.0475 12.6596 12.0565 12.6506C12.0655 12.6416 12.0745 12.6326 12.0835 12.6236C12.0925 12.6146 12.1015 12.6056 12.1105 12.5966C12.1195 12.5876 12.1285 12.5786 12.1376 12.5696C12.1466 12.5605 12.1556 12.5515 12.1646 12.5425C12.1736 12.5335 12.1826 12.5245 12.1916 12.5155C12.2006 12.5065 12.2096 12.4975 12.2186 12.4885C12.2276 12.4795 12.2366 12.4705 12.2456 12.4615C12.2546 12.4525 12.2636 12.4435 12.2726 12.4345C12.2816 12.4255 12.2906 12.4165 12.2996 12.4075C12.3086 12.3985 12.3176 12.3895 12.3266 12.3805C12.3356 12.3715 12.3446 12.3626 12.3536 12.3536C12.3626 12.3446 12.3715 12.3356 12.3805 12.3266C12.3895 12.3176 12.3985 12.3086 12.4075 12.2996C12.4165 12.2906 12.4255 12.2816 12.4345 12.2726C12.4435 12.2636 12.4525 12.2546 12.4615 12.2456C12.4705 12.2366 12.4795 12.2276 12.4885 12.2186C12.4975 12.2096 12.5065 12.2006 12.5155 12.1916C12.5245 12.1826 12.5335 12.1736 12.5425 12.1646C12.5515 12.1556 12.5605 12.1466 12.5696 12.1376C12.5786 12.1285 12.5876 12.1195 12.5966 12.1105C12.6056 12.1015 12.6146 12.0925 12.6236 12.0835C12.6326 12.0745 12.6416 12.0655 12.6506 12.0565C12.6596 12.0475 12.6687 12.0385 12.6777 12.0294C12.6867 12.0204 12.6957 12.0114 12.7047 12.0024C12.7137 11.9934 12.7228 11.9843 12.7318 11.9753C12.7408 11.9663 12.7498 11.9573 12.7589 11.9483C12.7679 11.9392 12.7769 11.9302 12.7859 11.9212C12.795 11.9121 12.804 11.9031 12.813 11.8941C12.8221 11.885 12.8311 11.876 12.8401 11.867C12.8492 11.8579 12.8582 11.8489 12.8673 11.8399C12.8763 11.8308 12.8853 11.8218 12.8944 11.8127C12.9034 11.8037 12.9125 11.7946 12.9215 11.7856C12.9306 11.7765 12.9396 11.7675 12.9487 11.7584C12.9578 11.7493 12.9668 11.7403 12.9759 11.7312C12.9849 11.7222 12.994 11.7131 13.0031 11.704C13.0121 11.695 13.0212 11.6859 13.0303 11.6768C13.0394 11.6677 13.0484 11.6587 13.0575 11.6496C13.0666 11.6405 13.0757 11.6314 13.0848 11.6223C13.0939 11.6132 13.103 11.6041 13.1121 11.595C13.1212 11.586 13.1303 11.5769 13.1394 11.5678C13.1485 11.5587 13.1576 11.5495 13.1667 11.5404C13.1758 11.5313 13.1849 11.5222 13.194 11.5131C13.2031 11.504 13.2122 11.4949 13.2214 11.4857C13.2305 11.4766 13.2396 11.4675 13.2488 11.4583C13.2579 11.4492 13.267 11.4401 13.2762 11.4309C13.2853 11.4218 13.2945 11.4126 13.3036 11.4035C13.3128 11.3943 13.3219 11.3852 13.3311 11.376C13.3402 11.3669 13.3494 11.3577 13.3586 11.3485C13.3677 11.3394 13.3769 11.3302 13.3861 11.321C13.3953 11.3119 13.4044 11.3027 13.4136 11.2935C13.4228 11.2843 13.432 11.2751 13.4412 11.2659C13.4504 11.2567 13.4596 11.2475 13.4688 11.2383C13.478 11.2291 13.4872 11.2199 13.4964 11.2107C13.5057 11.2015 13.5149 11.1922 13.5241 11.183C13.5333 11.1738 13.5426 11.1645 13.5518 11.1553C13.561 11.1461 13.5703 11.1368 13.5795 11.1276C13.5888 11.1183 13.598 11.1091 13.6073 11.0998C13.6166 11.0905 13.6258 11.0813 13.6351 11.072C13.6444 11.0627 13.6537 11.0535 13.6629 11.0442C13.6722 11.0349 13.6815 11.0256 13.6908 11.0163C13.7001 11.007 13.7094 10.9977 13.7187 10.9884C13.728 10.9791 13.7373 10.9698 13.7467 10.9604C13.756 10.9511 13.7653 10.9418 13.7746 10.9325C13.784 10.9231 13.7933 10.9138 13.8027 10.9044C13.812 10.8951 13.8214 10.8857 13.8307 10.8764C13.8401 10.867 13.8495 10.8577 13.8588 10.8483C13.8682 10.8389 13.8776 10.8295 13.887 10.8201C13.8964 10.8107 13.9058 10.8014 13.9152 10.7919C13.9246 10.7825 13.934 10.7731 13.9434 10.7637C13.9528 10.7543 13.9622 10.7449 13.9717 10.7355C13.9811 10.726 13.9905 10.7166 14 10.7071C14.0094 10.6977 14.0189 10.6882 14.0283 10.6788C14.0378 10.6693 14.0473 10.6598 14.0567 10.6504C14.0662 10.6409 14.0757 10.6314 14.0852 10.6219C14.0947 10.6124 14.1042 10.6029 14.1137 10.5934C14.1232 10.5839 14.1327 10.5744 14.1422 10.5649C14.1518 10.5553 14.1613 10.5458 14.1708 10.5363C14.1804 10.5267 14.1899 10.5172 14.1995 10.5076C14.209 10.4981 14.2186 10.4885 14.2282 10.4789C14.2377 10.4694 14.2473 10.4598 14.2569 10.4502C14.2665 10.4406 14.2761 10.431 14.2857 10.4214C14.2953 10.4118 14.3049 10.4022 14.3146 10.3925C14.3242 10.3829 14.3338 10.3733 14.3435 10.3636C14.3531 10.354 14.3628 10.3443 14.3724 10.3347C14.3821 10.325 14.3918 10.3154 14.4014 10.3057C14.4111 10.296 14.4208 10.2863 14.4305 10.2766C14.4402 10.2669 14.4499 10.2572 14.4596 10.2475C14.4693 10.2378 14.4791 10.228 14.4888 10.2183C14.4985 10.2086 14.5083 10.1988 14.518 10.1891C14.5278 10.1793 14.5376 10.1696 14.5473 10.1598C14.5571 10.15 14.5669 10.1402 14.5767 10.1304C14.5865 10.1206 14.5963 10.1108 14.6061 10.101C14.6159 10.0912 14.6257 10.0814 14.6356 10.0715C14.6454 10.0617 14.6553 10.0519 14.6651 10.042C14.675 10.0321 14.6848 10.0223 14.6947 10.0124C14.7046 10.0025 14.7145 9.99264 14.7244 9.98274C14.7343 9.97285 14.7442 9.96294 14.7541 9.95302C14.764 9.9431 14.7739 9.93317 14.7839 9.92323C14.7938 9.91329 14.8038 9.90334 14.8137 9.89338C14.8237 9.88341 14.8337 9.87344 14.8436 9.86346C14.8536 9.85347 14.8636 9.84348 14.8736 9.83347C14.8836 9.82347 14.8937 9.81345 14.9037 9.80342C14.9137 9.79339 14.9238 9.78335 14.9338 9.7733C14.9439 9.76325 14.9539 9.75318 14.964 9.74311C14.9741 9.73303 14.9842 9.72295 14.9943 9.71285C15.0044 9.70275 15.0145 9.69264 15.0246 9.68252C15.0347 9.6724 15.0448 9.66227 15.055 9.65212C15.0651 9.64197 15.0753 9.63182 15.0855 9.62165C15.0956 9.61148 15.1058 9.6013 15.116 9.5911C15.1262 9.58091 15.1364 9.5707 15.1466 9.56049C15.1568 9.55027 15.1671 9.54004 15.1773 9.52979C15.1876 9.51955 15.1978 9.50929 15.2081 9.49903C15.2183 9.48876 15.2286 9.47848 15.2389 9.46818C15.2492 9.45789 15.2595 9.44758 15.2698 9.43727C15.2802 9.42695 15.2905 9.41662 15.3008 9.40627C15.3112 9.39593 15.3215 9.38557 15.3319 9.3752C15.3423 9.36483 15.3527 9.35444 15.3631 9.34405C15.3735 9.33365 15.3839 9.32324 15.3943 9.31281C15.4047 9.30239 15.4152 9.29195 15.4256 9.2815C15.4361 9.27105 15.4465 9.26059 15.457 9.25011C15.4675 9.23963 15.478 9.22914 15.4885 9.21864C15.499 9.20813 15.5095 9.19762 15.52 9.18708C15.5306 9.17655 15.5411 9.16601 15.5517 9.15545C15.5622 9.14489 15.5728 9.13431 15.5834 9.12372C15.594 9.11314 15.6046 9.10253 15.6152 9.09192C15.6258 9.0813 15.6364 9.07067 15.6471 9.06003C15.6577 9.04938 15.6684 9.03872 15.6791 9.02805C15.6897 9.01737 15.7004 9.00669 15.7111 8.99598C15.7218 8.98528 15.7325 8.97456 15.7433 8.96383C15.754 8.9531 15.7648 8.94235 15.7755 8.93159C15.7863 8.92083 15.7971 8.91005 15.8078 8.89926C15.8186 8.88847 15.8294 8.87767 15.8403 8.86684C15.8511 8.85602 15.8619 8.84519 15.8728 8.83434C15.8836 8.82348 15.8945 8.81262 15.9054 8.80174C15.9163 8.79085 15.9272 8.77996 15.9381 8.76904C15.949 8.75813 15.9599 8.7472 15.9708 8.73626C15.9818 8.72531 15.9928 8.71435 16.0037 8.70338C16.0147 8.6924 16.0257 8.68141 16.0367 8.67041C16.0477 8.6594 16.0587 8.64838 16.0698 8.63734C16.0808 8.6263 16.0919 8.61525 16.1029 8.60418C16.114 8.59311 16.1251 8.58202 16.1362 8.57092C16.1473 8.55981 16.1584 8.5487 16.1695 8.53756C16.1807 8.52643 16.1918 8.51527 16.203 8.50411C16.2142 8.49294 16.2254 8.48175 16.2366 8.47055C16.2478 8.45935 16.259 8.44813 16.2702 8.4369C16.2814 8.42567 16.2927 8.41441 16.304 8.40315C16.3152 8.39188 16.3265 8.38059 16.3378 8.36929C16.3491 8.35799 16.3604 8.34667 16.3718 8.33534C16.3831 8.324 16.3945 8.31265 16.4058 8.30128C16.4172 8.28991 16.4286 8.27852 16.44 8.26712C16.4514 8.25571 16.4628 8.24429 16.4743 8.23285C16.4857 8.22142 16.4971 8.20996 16.5086 8.19848C16.5201 8.18701 16.5316 8.17552 16.5431 8.16401C16.5546 8.1525 16.5661 8.14097 16.5777 8.12943C16.5892 8.11788 16.6008 8.10632 16.6124 8.09474C16.6239 8.08316 16.6355 8.07156 16.6472 8.05995C16.6588 8.04833 16.6704 8.03669 16.6821 8.02504C16.6937 8.01339 16.7054 8.00172 16.7171 7.99003C16.7288 7.97834 16.7405 7.96663 16.7522 7.95491C16.7639 7.94318 16.7757 7.93143 16.7874 7.91967C16.7992 7.90791 16.811 7.89613 16.8228 7.88433C16.8346 7.87253 16.8464 7.86071 16.8582 7.84887C16.8701 7.83703 16.8819 7.82517 16.8938 7.8133C16.9057 7.80142 16.9176 7.78953 16.9295 7.77762C16.9414 7.7657 16.9533 7.75377 16.9653 7.74182C16.9772 7.72987 16.9892 7.7179 17.0012 7.7059C17.0132 7.69391 17.0252 7.6819 17.0372 7.66988C17.0493 7.65785 17.0613 7.6458 17.0734 7.63373C17.0854 7.62166 17.0975 7.60957 17.1096 7.59747C17.1217 7.58536 17.1339 7.57323 17.146 7.56109C17.1582 7.54894 17.1703 7.53677 17.1825 7.52459C17.1947 7.5124 17.2069 7.50019 17.2191 7.48797C17.2314 7.47574 17.2436 7.46349 17.2559 7.45123C17.2681 7.43896 17.2804 7.42667 17.2927 7.41437C17.305 7.40206 17.3174 7.38973 17.3297 7.37738C17.3421 7.36504 17.3544 7.35267 17.3668 7.34028C17.3792 7.32789 17.3916 7.31548 17.4041 7.30305C17.4165 7.29062 17.4289 7.27817 17.4414 7.2657C17.4539 7.25323 17.4664 7.24073 17.4789 7.22822C17.4914 7.21571 17.5039 7.20317 17.5165 7.19062C17.529 7.17806 17.5416 7.16548 17.5542 7.15289C17.5668 7.14029 17.5794 7.12767 17.5921 7.11503C17.6047 7.10239 17.6174 7.08973 17.6301 7.07705C17.6427 7.06436 17.6554 7.05166 17.6682 7.03893C17.6809 7.02621 17.6936 7.01346 17.7064 7.00069C17.7192 6.98792 17.732 6.97513 17.7448 6.96232C17.7576 6.94951 17.7704 6.93667 17.7833 6.92382C17.7961 6.91096 17.809 6.89808 17.8219 6.88518C17.8348 6.87228 17.8477 6.85936 17.8607 6.84641C17.8736 6.83347 17.8866 6.8205 17.8996 6.80751C17.9126 6.79453 17.9256 6.78151 17.9386 6.76848C17.9517 6.75545 17.9647 6.74239 17.9778 6.72931C17.9909 6.71623 18.004 6.70313 18.0171 6.69001C18.0302 6.67688 18.0434 6.66374 18.0565 6.65057C18.0697 6.6374 18.0829 6.62421 18.0961 6.61099C18.1093 6.59778 18.1226 6.58454 18.1358 6.57128C18.1491 6.55802 18.1624 6.54473 18.1757 6.53143C18.189 6.51812 18.2023 6.50479 18.2157 6.49143C18.229 6.47808 18.2424 6.4647 18.2558 6.4513C18.2692 6.4379 18.2826 6.42448 18.2961 6.41103C18.3095 6.39758 18.323 6.38411 18.3365 6.37062C18.35 6.35712 18.3635 6.34361 18.377 6.33006C18.3906 6.31652 18.4042 6.30296 18.4177 6.28937C18.4313 6.27578 18.4449 6.26216 18.4586 6.24853C18.4722 6.23489 18.4859 6.22123 18.4996 6.20754C18.5133 6.19385 18.527 6.18014 18.5407 6.16641C18.5544 6.15268 18.5682 6.13892 18.582 6.12513C18.5958 6.11135 18.6096 6.09754 18.6234 6.08371C18.6372 6.06988 18.6511 6.05602 18.665 6.04214C18.6788 6.02826 18.6928 6.01435 18.7067 6.00042C18.7206 5.98649 18.7346 5.97254 18.7486 5.95856C18.7625 5.94458 18.7765 5.93057 18.7906 5.91654C18.8046 5.90251 18.8187 5.88845 18.8327 5.87437C18.8468 5.86029 18.8609 5.84619 18.8751 5.83206C18.8892 5.81792 18.9033 5.80377 18.9175 5.78959C18.9317 5.7754 18.9459 5.7612 18.9601 5.74696C18.9744 5.73273 18.9886 5.71847 19.0029 5.70419C19.0172 5.68991 19.0315 5.6756 19.0458 5.66126C19.0602 5.64693 19.0745 5.63256 19.0889 5.61818C19.1033 5.60379 19.1177 5.58938 19.1322 5.57494C19.1466 5.5605 19.1611 5.54603 19.1756 5.53154C19.1901 5.51705 19.2046 5.50253 19.2191 5.48799C19.2337 5.47345 19.2482 5.45888 19.2628 5.44428C19.2774 5.42968 19.292 5.41506 19.3067 5.40041C19.3213 5.38576 19.336 5.37109 19.3507 5.35638C19.3654 5.34168 19.3802 5.32695 19.3949 5.3122C19.4097 5.29744 19.4244 5.28266 19.4393 5.26785C19.4541 5.25304 19.4689 5.2382 19.4838 5.22334C19.4986 5.20848 19.5135 5.19358 19.5284 5.17867C19.5434 5.16375 19.5583 5.1488 19.5733 5.13383C19.5882 5.11886 19.6032 5.10386 19.6183 5.08883C19.6333 5.07381 19.6484 5.05875 19.6634 5.04367C19.6785 5.02859 19.6936 5.01348 19.7088 4.99834C19.7239 4.9832 19.7391 4.96804 19.7543 4.95285C19.7695 4.93766 19.7847 4.92243 19.7999 4.90719C19.8152 4.89194 19.8304 4.87666 19.8457 4.86136C19.8611 4.84605 19.8764 4.83072 19.8917 4.81536C19.9071 4.8 19.9225 4.78461 19.9379 4.7692C19.9533 4.75378 19.9688 4.73833 19.9842 4.72286C19.9997 4.70739 20.0152 4.69189 20.0308 4.67636C20.0463 4.66083 20.0618 4.64527 20.0774 4.62968C20.093 4.61409 20.1086 4.59848 20.1243 4.58283C20.1399 4.56719 20.1556 4.55151 20.1713 4.53581C20.187 4.52011 20.2027 4.50437 20.2185 4.48861C20.2343 4.47285 20.25 4.45706 20.2659 4.44125C20.2817 4.42543 20.2975 4.40958 20.3134 4.3937C20.3293 4.37782 20.3452 4.36192 20.3611 4.34598C20.3771 4.33005 20.393 4.31408 20.409 4.29809C20.425 4.28209 20.441 4.26607 20.4571 4.25001C20.4731 4.23396 20.4892 4.21788 20.5053 4.20176C20.5215 4.18565 20.5376 4.16951 20.5538 4.15333C20.5699 4.13716 20.5862 4.12096 20.6024 4.10472C20.6186 4.08849 20.6349 4.07223 20.6512 4.05593C20.6675 4.03964 20.6838 4.02332 20.7001 4.00696C20.7165 3.99061 20.7329 3.97423 20.7493 3.95781C20.7657 3.9414 20.7822 3.92495 20.7986 3.90848C20.8151 3.892 20.8316 3.8755 20.8481 3.85896C20.8647 3.84243 20.8812 3.82586 20.8978 3.80926C20.9144 3.79266 20.9311 3.77603 20.9477 3.75937C20.9644 3.74272 20.9811 3.72603 20.9978 3.7093C21.0145 3.69258 21.0313 3.67583 21.0481 3.65905C21.0648 3.64226 21.0817 3.62545 21.0985 3.6086C21.1154 3.59176 21.1322 3.57488 21.1491 3.55797C21.166 3.54106 21.183 3.52412 21.2 3.50715C21.2169 3.49018 21.2339 3.47318 21.251 3.45614C21.268 3.43911 21.2851 3.42204 21.3022 3.40494C21.3193 3.38784 21.3364 3.37072 21.3536 3.35355L20.6464 2.64645C20.6293 2.66361 20.6122 2.68074 20.5951 2.69784C20.578 2.71493 20.5609 2.732 20.5439 2.74904C20.5268 2.76607 20.5098 2.78307 20.4928 2.80004C20.4759 2.81702 20.4589 2.83396 20.442 2.85086C20.4251 2.86777 20.4082 2.88465 20.3914 2.9015C20.3746 2.91834 20.3577 2.93516 20.341 2.95194C20.3242 2.96872 20.3074 2.98548 20.2907 3.0022C20.274 3.01892 20.2573 3.03561 20.2406 3.05227C20.224 3.06893 20.2073 3.08556 20.1907 3.10215C20.1741 3.11875 20.1576 3.13532 20.141 3.15185C20.1245 3.16839 20.108 3.1849 20.0915 3.20137C20.075 3.21785 20.0586 3.23429 20.0422 3.25071C20.0258 3.26712 20.0094 3.2835 19.993 3.29986C19.9767 3.31621 19.9604 3.33253 19.9441 3.34883C19.9278 3.36512 19.9115 3.38138 19.8953 3.39762C19.879 3.41385 19.8628 3.43005 19.8467 3.44623C19.8305 3.4624 19.8144 3.47854 19.7982 3.49466C19.7821 3.51077 19.766 3.52685 19.75 3.54291C19.7339 3.55896 19.7179 3.57498 19.7019 3.59098C19.6859 3.60697 19.67 3.62294 19.654 3.63888C19.6381 3.65481 19.6222 3.67072 19.6063 3.68659C19.5904 3.70247 19.5746 3.71832 19.5588 3.73414C19.5429 3.74996 19.5271 3.76575 19.5114 3.78151C19.4956 3.79727 19.4799 3.813 19.4642 3.8287C19.4485 3.8444 19.4328 3.86008 19.4172 3.87572C19.4015 3.89137 19.3859 3.90698 19.3703 3.92257C19.3547 3.93816 19.3392 3.95372 19.3236 3.96925C19.3081 3.98478 19.2926 4.00028 19.2771 4.01575C19.2617 4.03123 19.2462 4.04667 19.2308 4.06209C19.2154 4.07751 19.2 4.09289 19.1846 4.10826C19.1693 4.12362 19.1539 4.13895 19.1386 4.15425C19.1233 4.16956 19.1081 4.18483 19.0928 4.20008C19.0776 4.21533 19.0623 4.23055 19.0472 4.24574C19.032 4.26093 19.0168 4.2761 19.0017 4.29123C18.9865 4.30637 18.9714 4.32148 18.9563 4.33656C18.9412 4.35165 18.9262 4.3667 18.9112 4.38173C18.8961 4.39675 18.8811 4.41175 18.8662 4.42673C18.8512 4.4417 18.8363 4.45664 18.8213 4.47156C18.8064 4.48648 18.7915 4.50137 18.7767 4.51623C18.7618 4.5311 18.747 4.54593 18.7322 4.56074C18.7173 4.57555 18.7026 4.59033 18.6878 4.60509C18.673 4.61985 18.6583 4.63458 18.6436 4.64928C18.6289 4.66398 18.6142 4.67866 18.5996 4.69331C18.5849 4.70795 18.5703 4.72258 18.5557 4.73717C18.5411 4.75177 18.5266 4.76634 18.512 4.78088C18.4975 4.79543 18.4829 4.80994 18.4685 4.82444C18.454 4.83893 18.4395 4.85339 18.4251 4.86783C18.4106 4.88227 18.3962 4.89668 18.3818 4.91107C18.3674 4.92546 18.3531 4.93982 18.3387 4.95415C18.3244 4.96849 18.3101 4.9828 18.2958 4.99708C18.2815 5.01137 18.2673 5.02563 18.253 5.03986C18.2388 5.05409 18.2246 5.0683 18.2104 5.08248C18.1962 5.09666 18.1821 5.11082 18.1679 5.12495C18.1538 5.13908 18.1397 5.15319 18.1256 5.16727C18.1115 5.18135 18.0975 5.1954 18.0835 5.20943C18.0694 5.22346 18.0554 5.23747 18.0414 5.25145C18.0275 5.26543 18.0135 5.27939 17.9996 5.29332C17.9856 5.30725 17.9717 5.32115 17.9579 5.33503C17.944 5.34892 17.9301 5.36277 17.9163 5.3766C17.9025 5.39044 17.8886 5.40424 17.8749 5.41803C17.8611 5.43181 17.8473 5.44557 17.8336 5.4593C17.8199 5.47304 17.8061 5.48675 17.7925 5.50043C17.7788 5.51412 17.7651 5.52778 17.7515 5.54142C17.7378 5.55506 17.7242 5.56867 17.7106 5.58226C17.697 5.59585 17.6835 5.60942 17.6699 5.62296C17.6564 5.6365 17.6429 5.65002 17.6294 5.66351C17.6159 5.67701 17.6024 5.69048 17.589 5.70393C17.5755 5.71737 17.5621 5.7308 17.5487 5.7442C17.5353 5.7576 17.5219 5.77097 17.5086 5.78433C17.4952 5.79768 17.4819 5.81101 17.4686 5.82432C17.4553 5.83763 17.442 5.85091 17.4287 5.86417C17.4155 5.87743 17.4022 5.89067 17.389 5.90389C17.3758 5.9171 17.3626 5.93029 17.3494 5.94346C17.3363 5.95663 17.3231 5.96978 17.31 5.9829C17.2969 5.99603 17.2838 6.00913 17.2707 6.02221C17.2576 6.03528 17.2446 6.04834 17.2315 6.06137C17.2185 6.07441 17.2055 6.08742 17.1925 6.10041C17.1795 6.1134 17.1665 6.12636 17.1536 6.13931C17.1406 6.15225 17.1277 6.16517 17.1148 6.17807C17.1019 6.19097 17.089 6.20385 17.0762 6.21671C17.0633 6.22957 17.0505 6.2424 17.0377 6.25521C17.0249 6.26802 17.0121 6.28082 16.9993 6.29358C16.9865 6.30635 16.9738 6.3191 16.9611 6.33183C16.9483 6.34455 16.9356 6.35726 16.923 6.36994C16.9103 6.38262 16.8976 6.39528 16.885 6.40792C16.8723 6.42056 16.8597 6.43318 16.8471 6.44578C16.8345 6.45838 16.8219 6.47095 16.8094 6.48351C16.7968 6.49607 16.7843 6.5086 16.7718 6.52111C16.7593 6.53363 16.7468 6.54612 16.7343 6.55859C16.7218 6.57106 16.7094 6.58351 16.6969 6.59594C16.6845 6.60837 16.6721 6.62078 16.6597 6.63317C16.6473 6.64556 16.635 6.65793 16.6226 6.67028C16.6103 6.68263 16.5979 6.69495 16.5856 6.70726C16.5733 6.71957 16.561 6.73185 16.5488 6.74412C16.5365 6.75639 16.5243 6.76863 16.512 6.78086C16.4998 6.79309 16.4876 6.80529 16.4754 6.81748C16.4632 6.82967 16.4511 6.84183 16.4389 6.85398C16.4268 6.86613 16.4146 6.87825 16.4025 6.89036C16.3904 6.90247 16.3783 6.91456 16.3663 6.92662C16.3542 6.93869 16.3422 6.95074 16.3301 6.96277C16.3181 6.9748 16.3061 6.98681 16.2941 6.9988C16.2821 7.01079 16.2701 7.02276 16.2582 7.03471C16.2462 7.04666 16.2343 7.0586 16.2224 7.07051C16.2105 7.08242 16.1986 7.09432 16.1867 7.10619C16.1748 7.11807 16.163 7.12992 16.1511 7.14176C16.1393 7.1536 16.1275 7.16542 16.1157 7.17722C16.1039 7.18902 16.0921 7.2008 16.0803 7.21256C16.0686 7.22433 16.0568 7.23607 16.0451 7.2478C16.0334 7.25952 16.0217 7.27123 16.01 7.28292C15.9983 7.29461 15.9866 7.30628 15.975 7.31793C15.9633 7.32959 15.9517 7.34122 15.9401 7.35284C15.9284 7.36445 15.9168 7.37605 15.9053 7.38763C15.8937 7.39921 15.8821 7.41078 15.8706 7.42232C15.859 7.43387 15.8475 7.44539 15.836 7.4569C15.8245 7.46841 15.813 7.4799 15.8015 7.49138C15.79 7.50285 15.7786 7.51431 15.7671 7.52575C15.7557 7.53719 15.7443 7.54861 15.7329 7.56001C15.7215 7.57142 15.7101 7.5828 15.6987 7.59417C15.6874 7.60554 15.676 7.6169 15.6647 7.62823C15.6533 7.63957 15.642 7.65089 15.6307 7.66219C15.6194 7.67349 15.6081 7.68477 15.5969 7.69604C15.5856 7.70731 15.5743 7.71856 15.5631 7.72979C15.5519 7.74103 15.5406 7.75224 15.5294 7.76345C15.5182 7.77465 15.5071 7.78583 15.4959 7.797C15.4847 7.80817 15.4736 7.81932 15.4624 7.83045C15.4513 7.84159 15.4402 7.85271 15.4291 7.86381C15.418 7.87491 15.4069 7.886 15.3958 7.89707C15.3848 7.90814 15.3737 7.91919 15.3627 7.93023C15.3516 7.94127 15.3406 7.95229 15.3296 7.9633C15.3186 7.97431 15.3076 7.9853 15.2966 7.99627C15.2856 8.00725 15.2747 8.01821 15.2637 8.02915C15.2528 8.0401 15.2419 8.05102 15.231 8.06194C15.22 8.07285 15.2091 8.08375 15.1983 8.09463C15.1874 8.10551 15.1765 8.11638 15.1657 8.12723C15.1548 8.13808 15.144 8.14892 15.1332 8.15974C15.1223 8.17056 15.1115 8.18137 15.1007 8.19216C15.0899 8.20295 15.0792 8.21372 15.0684 8.22449C15.0576 8.23525 15.0469 8.24599 15.0362 8.25673C15.0254 8.26746 15.0147 8.27817 15.004 8.28888C14.9933 8.29958 14.9826 8.31027 14.972 8.32094C14.9613 8.33161 14.9506 8.34227 14.94 8.35292C14.9293 8.36356 14.9187 8.37419 14.9081 8.38481C14.8975 8.39543 14.8869 8.40603 14.8763 8.41662C14.8657 8.42721 14.8551 8.43778 14.8446 8.44834C14.834 8.4589 14.8234 8.46945 14.8129 8.47998C14.8024 8.49051 14.7919 8.50103 14.7814 8.51153C14.7709 8.52204 14.7604 8.53253 14.7499 8.54301C14.7394 8.55348 14.7289 8.56395 14.7185 8.5744C14.708 8.58485 14.6976 8.59528 14.6872 8.60571C14.6768 8.61613 14.6664 8.62654 14.656 8.63694C14.6456 8.64734 14.6352 8.65772 14.6248 8.66809C14.6144 8.67846 14.6041 8.68882 14.5937 8.69916C14.5834 8.70951 14.5731 8.71984 14.5627 8.73016C14.5524 8.74048 14.5421 8.75078 14.5318 8.76108C14.5215 8.77137 14.5112 8.78165 14.501 8.79192C14.4907 8.80219 14.4804 8.81244 14.4702 8.82269C14.46 8.83293 14.4497 8.84316 14.4395 8.85338C14.4293 8.8636 14.4191 8.8738 14.4089 8.884C14.3987 8.89419 14.3885 8.90437 14.3784 8.91454C14.3682 8.92471 14.358 8.93487 14.3479 8.94501C14.3377 8.95516 14.3276 8.96529 14.3175 8.97541C14.3074 8.98554 14.2972 8.99565 14.2872 9.00574C14.2771 9.01584 14.267 9.02593 14.2569 9.036C14.2468 9.04608 14.2368 9.05614 14.2267 9.06619C14.2167 9.07624 14.2066 9.08628 14.1966 9.09631C14.1866 9.10634 14.1765 9.11636 14.1665 9.12637C14.1565 9.13637 14.1465 9.14637 14.1365 9.15635C14.1266 9.16634 14.1166 9.17631 14.1066 9.18627C14.0967 9.19623 14.0867 9.20618 14.0768 9.21612C14.0668 9.22606 14.0569 9.23599 14.047 9.24591C14.0371 9.25583 14.0272 9.26574 14.0173 9.27564C14.0074 9.28553 13.9975 9.29542 13.9876 9.3053C13.9777 9.31517 13.9679 9.32504 13.958 9.33489C13.9481 9.34475 13.9383 9.35459 13.9285 9.36443C13.9186 9.37426 13.9088 9.38409 13.899 9.3939C13.8892 9.40372 13.8794 9.41352 13.8696 9.42332C13.8598 9.43311 13.85 9.4429 13.8402 9.45267C13.8304 9.46245 13.8207 9.47221 13.8109 9.48197C13.8012 9.49172 13.7914 9.50147 13.7817 9.5112C13.772 9.52094 13.7622 9.53066 13.7525 9.54038C13.7428 9.5501 13.7331 9.55981 13.7234 9.5695C13.7137 9.5792 13.704 9.58889 13.6943 9.59857C13.6846 9.60825 13.675 9.61792 13.6653 9.62758C13.6557 9.63724 13.646 9.64689 13.6364 9.65654C13.6267 9.66618 13.6171 9.67581 13.6075 9.68544C13.5978 9.69507 13.5882 9.70468 13.5786 9.71429C13.569 9.7239 13.5594 9.7335 13.5498 9.74309C13.5402 9.75268 13.5306 9.76226 13.5211 9.77183C13.5115 9.78141 13.5019 9.79097 13.4924 9.80053C13.4828 9.81008 13.4733 9.81963 13.4637 9.82917C13.4542 9.83871 13.4447 9.84824 13.4351 9.85777C13.4256 9.86729 13.4161 9.87681 13.4066 9.88631C13.3971 9.89582 13.3876 9.90532 13.3781 9.91481C13.3686 9.9243 13.3591 9.93379 13.3496 9.94326C13.3402 9.95274 13.3307 9.96221 13.3212 9.97167C13.3118 9.98113 13.3023 9.99058 13.2929 10C13.2834 10.0095 13.274 10.0189 13.2645 10.0283C13.2551 10.0378 13.2457 10.0472 13.2363 10.0566C13.2269 10.066 13.2175 10.0754 13.2081 10.0848C13.1986 10.0942 13.1893 10.1036 13.1799 10.113C13.1705 10.1224 13.1611 10.1318 13.1517 10.1412C13.1423 10.1505 13.133 10.1599 13.1236 10.1693C13.1143 10.1786 13.1049 10.188 13.0956 10.1973C13.0862 10.2067 13.0769 10.216 13.0675 10.2254C13.0582 10.2347 13.0489 10.244 13.0396 10.2533C13.0302 10.2627 13.0209 10.272 13.0116 10.2813C13.0023 10.2906 12.993 10.2999 12.9837 10.3092C12.9744 10.3185 12.9651 10.3278 12.9558 10.3371C12.9465 10.3463 12.9373 10.3556 12.928 10.3649C12.9187 10.3742 12.9095 10.3834 12.9002 10.3927C12.8909 10.402 12.8817 10.4112 12.8724 10.4205C12.8632 10.4297 12.8539 10.439 12.8447 10.4482C12.8355 10.4574 12.8262 10.4667 12.817 10.4759C12.8078 10.4851 12.7985 10.4943 12.7893 10.5036C12.7801 10.5128 12.7709 10.522 12.7617 10.5312C12.7525 10.5404 12.7433 10.5496 12.7341 10.5588C12.7249 10.568 12.7157 10.5772 12.7065 10.5864C12.6973 10.5956 12.6881 10.6047 12.679 10.6139C12.6698 10.6231 12.6606 10.6323 12.6515 10.6414C12.6423 10.6506 12.6331 10.6598 12.624 10.6689C12.6148 10.6781 12.6057 10.6872 12.5965 10.6964C12.5874 10.7055 12.5782 10.7147 12.5691 10.7238C12.5599 10.733 12.5508 10.7421 12.5417 10.7512C12.5325 10.7604 12.5234 10.7695 12.5143 10.7786C12.5051 10.7878 12.496 10.7969 12.4869 10.806C12.4778 10.8151 12.4687 10.8242 12.4596 10.8333C12.4505 10.8424 12.4413 10.8515 12.4322 10.8606C12.4231 10.8697 12.414 10.8788 12.405 10.8879C12.3959 10.897 12.3868 10.9061 12.3777 10.9152C12.3686 10.9243 12.3595 10.9334 12.3504 10.9425C12.3413 10.9516 12.3323 10.9606 12.3232 10.9697C12.3141 10.9788 12.305 10.9879 12.296 10.9969C12.2869 11.006 12.2778 11.0151 12.2688 11.0241C12.2597 11.0332 12.2507 11.0422 12.2416 11.0513C12.2325 11.0604 12.2235 11.0694 12.2144 11.0785C12.2054 11.0875 12.1963 11.0966 12.1873 11.1056C12.1782 11.1147 12.1692 11.1237 12.1601 11.1327C12.1511 11.1418 12.1421 11.1508 12.133 11.1599C12.124 11.1689 12.115 11.1779 12.1059 11.187C12.0969 11.196 12.0879 11.205 12.0788 11.2141C12.0698 11.2231 12.0608 11.2321 12.0517 11.2411C12.0427 11.2502 12.0337 11.2592 12.0247 11.2682C12.0157 11.2772 12.0066 11.2863 11.9976 11.2953C11.9886 11.3043 11.9796 11.3133 11.9706 11.3223C11.9615 11.3313 11.9525 11.3404 11.9435 11.3494C11.9345 11.3584 11.9255 11.3674 11.9165 11.3764C11.9075 11.3854 11.8985 11.3944 11.8895 11.4034C11.8805 11.4124 11.8715 11.4214 11.8624 11.4304C11.8534 11.4395 11.8444 11.4485 11.8354 11.4575C11.8264 11.4665 11.8174 11.4755 11.8084 11.4845C11.7994 11.4935 11.7904 11.5025 11.7814 11.5115C11.7724 11.5205 11.7634 11.5295 11.7544 11.5385C11.7454 11.5475 11.7364 11.5565 11.7274 11.5655C11.7184 11.5745 11.7094 11.5835 11.7004 11.5925C11.6914 11.6015 11.6824 11.6105 11.6734 11.6195C11.6644 11.6285 11.6554 11.6374 11.6464 11.6464C11.6374 11.6554 11.6285 11.6644 11.6195 11.6734C11.6105 11.6824 11.6015 11.6914 11.5925 11.7004C11.5835 11.7094 11.5745 11.7184 11.5655 11.7274C11.5565 11.7364 11.5475 11.7454 11.5385 11.7544C11.5295 11.7634 11.5205 11.7724 11.5115 11.7814C11.5025 11.7904 11.4935 11.7994 11.4845 11.8084C11.4755 11.8174 11.4665 11.8264 11.4575 11.8354C11.4485 11.8444 11.4395 11.8534 11.4304 11.8624C11.4214 11.8715 11.4124 11.8805 11.4034 11.8895C11.3944 11.8985 11.3854 11.9075 11.3764 11.9165C11.3674 11.9255 11.3584 11.9345 11.3494 11.9435C11.3404 11.9525 11.3313 11.9615 11.3223 11.9706C11.3133 11.9796 11.3043 11.9886 11.2953 11.9976C11.2863 12.0066 11.2772 12.0157 11.2682 12.0247C11.2592 12.0337 11.2502 12.0427 11.2411 12.0517C11.2321 12.0608 11.2231 12.0698 11.2141 12.0788C11.205 12.0879 11.196 12.0969 11.187 12.1059C11.1779 12.115 11.1689 12.124 11.1599 12.133C11.1508 12.1421 11.1418 12.1511 11.1327 12.1601C11.1237 12.1692 11.1147 12.1782 11.1056 12.1873C11.0966 12.1963 11.0875 12.2054 11.0785 12.2144C11.0694 12.2235 11.0604 12.2325 11.0513 12.2416C11.0422 12.2507 11.0332 12.2597 11.0241 12.2688C11.0151 12.2778 11.006 12.2869 10.9969 12.296C10.9879 12.305 10.9788 12.3141 10.9697 12.3232C10.9606 12.3323 10.9516 12.3413 10.9425 12.3504C10.9334 12.3595 10.9243 12.3686 10.9152 12.3777C10.9061 12.3868 10.897 12.3959 10.8879 12.405C10.8788 12.414 10.8697 12.4231 10.8606 12.4322C10.8515 12.4413 10.8424 12.4505 10.8333 12.4596C10.8242 12.4687 10.8151 12.4778 10.806 12.4869C10.7969 12.496 10.7878 12.5051 10.7786 12.5143C10.7695 12.5234 10.7604 12.5325 10.7512 12.5417C10.7421 12.5508 10.733 12.5599 10.7238 12.5691C10.7147 12.5782 10.7055 12.5874 10.6964 12.5965C10.6872 12.6057 10.6781 12.6148 10.6689 12.624C10.6598 12.6331 10.6506 12.6423 10.6414 12.6515C10.6323 12.6606 10.6231 12.6698 10.6139 12.679C10.6047 12.6881 10.5956 12.6973 10.5864 12.7065C10.5772 12.7157 10.568 12.7249 10.5588 12.7341C10.5496 12.7433 10.5404 12.7525 10.5312 12.7617C10.522 12.7709 10.5128 12.7801 10.5036 12.7893C10.4943 12.7985 10.4851 12.8078 10.4759 12.817C10.4667 12.8262 10.4574 12.8355 10.4482 12.8447C10.439 12.8539 10.4297 12.8632 10.4205 12.8724C10.4112 12.8817 10.402 12.8909 10.3927 12.9002C10.3834 12.9095 10.3742 12.9187 10.3649 12.928C10.3556 12.9373 10.3463 12.9465 10.3371 12.9558C10.3278 12.9651 10.3185 12.9744 10.3092 12.9837C10.2999 12.993 10.2906 13.0023 10.2813 13.0116C10.272 13.0209 10.2627 13.0302 10.2533 13.0396C10.244 13.0489 10.2347 13.0582 10.2254 13.0675C10.216 13.0769 10.2067 13.0862 10.1973 13.0956C10.188 13.1049 10.1786 13.1143 10.1693 13.1236C10.1599 13.133 10.1505 13.1423 10.1412 13.1517C10.1318 13.1611 10.1224 13.1705 10.113 13.1799C10.1036 13.1893 10.0942 13.1986 10.0848 13.2081C10.0754 13.2175 10.066 13.2269 10.0566 13.2363C10.0472 13.2457 10.0378 13.2551 10.0283 13.2645C10.0189 13.274 10.0095 13.2834 10 13.2929C9.99058 13.3023 9.98113 13.3118 9.97167 13.3212C9.96221 13.3307 9.95274 13.3402 9.94326 13.3496C9.93379 13.3591 9.9243 13.3686 9.91481 13.3781C9.90532 13.3876 9.89582 13.3971 9.88631 13.4066C9.87681 13.4161 9.86729 13.4256 9.85777 13.4351C9.84824 13.4447 9.83871 13.4542 9.82917 13.4637C9.81963 13.4733 9.81008 13.4828 9.80053 13.4924C9.79097 13.5019 9.78141 13.5115 9.77183 13.5211C9.76226 13.5306 9.75268 13.5402 9.74309 13.5498C9.7335 13.5594 9.7239 13.569 9.71429 13.5786C9.70468 13.5882 9.69507 13.5978 9.68544 13.6075C9.67581 13.6171 9.66618 13.6267 9.65654 13.6364C9.64689 13.646 9.63724 13.6557 9.62758 13.6653C9.61792 13.675 9.60825 13.6846 9.59857 13.6943C9.58889 13.704 9.5792 13.7137 9.5695 13.7234C9.55981 13.7331 9.5501 13.7428 9.54038 13.7525C9.53066 13.7622 9.52094 13.772 9.5112 13.7817C9.50147 13.7914 9.49172 13.8012 9.48197 13.8109C9.47221 13.8207 9.46245 13.8304 9.45267 13.8402C9.4429 13.85 9.43311 13.8598 9.42332 13.8696C9.41352 13.8794 9.40372 13.8892 9.3939 13.899C9.38409 13.9088 9.37426 13.9186 9.36443 13.9285C9.35459 13.9383 9.34475 13.9481 9.33489 13.958C9.32504 13.9679 9.31517 13.9777 9.3053 13.9876C9.29542 13.9975 9.28553 14.0074 9.27564 14.0173C9.26574 14.0272 9.25583 14.0371 9.24591 14.047C9.23599 14.0569 9.22606 14.0668 9.21612 14.0768C9.20618 14.0867 9.19623 14.0967 9.18627 14.1066C9.17631 14.1166 9.16634 14.1266 9.15635 14.1365C9.14637 14.1465 9.13637 14.1565 9.12637 14.1665C9.11636 14.1765 9.10634 14.1866 9.09631 14.1966C9.08628 14.2066 9.07624 14.2167 9.06619 14.2267C9.05614 14.2368 9.04608 14.2468 9.036 14.2569C9.02593 14.267 9.01584 14.2771 9.00574 14.2872C8.99565 14.2972 8.98554 14.3074 8.97541 14.3175C8.96529 14.3276 8.95516 14.3377 8.94501 14.3479C8.93487 14.358 8.92471 14.3682 8.91454 14.3784C8.90437 14.3885 8.89419 14.3987 8.884 14.4089C8.8738 14.4191 8.8636 14.4293 8.85338 14.4395C8.84316 14.4497 8.83293 14.46 8.82269 14.4702C8.81244 14.4804 8.80219 14.4907 8.79192 14.501C8.78165 14.5112 8.77137 14.5215 8.76108 14.5318C8.75078 14.5421 8.74048 14.5524 8.73016 14.5627C8.71984 14.5731 8.70951 14.5834 8.69916 14.5937C8.68882 14.6041 8.67846 14.6144 8.66809 14.6248C8.65772 14.6352 8.64734 14.6456 8.63694 14.656C8.62654 14.6664 8.61613 14.6768 8.60571 14.6872C8.59528 14.6976 8.58485 14.708 8.5744 14.7185C8.56395 14.7289 8.55348 14.7394 8.54301 14.7499C8.53253 14.7604 8.52204 14.7709 8.51153 14.7814C8.50103 14.7919 8.49051 14.8024 8.47998 14.8129C8.46945 14.8234 8.4589 14.834 8.44834 14.8446C8.43778 14.8551 8.42721 14.8657 8.41662 14.8763C8.40603 14.8869 8.39543 14.8975 8.38481 14.9081C8.37419 14.9187 8.36356 14.9293 8.35292 14.94C8.34227 14.9506 8.33161 14.9613 8.32094 14.972C8.31027 14.9826 8.29958 14.9933 8.28888 15.004C8.27817 15.0147 8.26746 15.0254 8.25673 15.0362C8.24599 15.0469 8.23525 15.0576 8.22449 15.0684C8.21372 15.0792 8.20295 15.0899 8.19216 15.1007C8.18137 15.1115 8.17056 15.1223 8.15974 15.1332C8.14892 15.144 8.13808 15.1548 8.12723 15.1657C8.11638 15.1765 8.10551 15.1874 8.09463 15.1983C8.08375 15.2091 8.07285 15.22 8.06194 15.231C8.05102 15.2419 8.0401 15.2528 8.02915 15.2637C8.01821 15.2747 8.00725 15.2856 7.99627 15.2966C7.9853 15.3076 7.97431 15.3186 7.9633 15.3296C7.95229 15.3406 7.94127 15.3516 7.93023 15.3627C7.91919 15.3737 7.90814 15.3848 7.89707 15.3958C7.886 15.4069 7.87491 15.418 7.86381 15.4291C7.85271 15.4402 7.84159 15.4513 7.83045 15.4624C7.81932 15.4736 7.80817 15.4847 7.797 15.4959C7.78583 15.5071 7.77465 15.5182 7.76345 15.5294C7.75224 15.5406 7.74103 15.5519 7.72979 15.5631C7.71856 15.5743 7.70731 15.5856 7.69604 15.5969C7.68477 15.6081 7.67349 15.6194 7.66219 15.6307C7.65089 15.642 7.63957 15.6533 7.62823 15.6647C7.6169 15.676 7.60554 15.6874 7.59417 15.6987C7.5828 15.7101 7.57142 15.7215 7.56001 15.7329C7.54861 15.7443 7.53719 15.7557 7.52575 15.7671C7.51431 15.7786 7.50285 15.79 7.49138 15.8015C7.4799 15.813 7.46841 15.8245 7.4569 15.836C7.44539 15.8475 7.43387 15.859 7.42232 15.8706C7.41078 15.8821 7.39921 15.8937 7.38763 15.9053C7.37605 15.9168 7.36445 15.9284 7.35284 15.9401C7.34122 15.9517 7.32959 15.9633 7.31793 15.975C7.30628 15.9866 7.29461 15.9983 7.28292 16.01C7.27123 16.0217 7.25952 16.0334 7.2478 16.0451C7.23607 16.0568 7.22433 16.0686 7.21256 16.0803C7.2008 16.0921 7.18902 16.1039 7.17722 16.1157C7.16542 16.1275 7.1536 16.1393 7.14176 16.1511C7.12992 16.163 7.11807 16.1748 7.10619 16.1867C7.09432 16.1986 7.08242 16.2105 7.07051 16.2224C7.0586 16.2343 7.04666 16.2462 7.03471 16.2582C7.02276 16.2701 7.01079 16.2821 6.9988 16.2941C6.98681 16.3061 6.9748 16.3181 6.96277 16.3301C6.95074 16.3422 6.93869 16.3542 6.92662 16.3663C6.91456 16.3783 6.90247 16.3904 6.89036 16.4025C6.87825 16.4146 6.86613 16.4268 6.85398 16.4389C6.84183 16.4511 6.82967 16.4632 6.81748 16.4754C6.80529 16.4876 6.79309 16.4998 6.78086 16.512C6.76863 16.5243 6.75639 16.5365 6.74412 16.5488C6.73185 16.561 6.71957 16.5733 6.70726 16.5856C6.69495 16.5979 6.68263 16.6103 6.67028 16.6226C6.65793 16.635 6.64556 16.6473 6.63317 16.6597C6.62078 16.6721 6.60837 16.6845 6.59594 16.6969C6.58351 16.7094 6.57106 16.7218 6.55859 16.7343C6.54612 16.7468 6.53363 16.7593 6.52111 16.7718C6.5086 16.7843 6.49607 16.7968 6.48351 16.8094C6.47095 16.8219 6.45838 16.8345 6.44578 16.8471C6.43318 16.8597 6.42056 16.8723 6.40792 16.885C6.39528 16.8976 6.38262 16.9103 6.36994 16.923C6.35726 16.9356 6.34455 16.9483 6.33183 16.9611C6.3191 16.9738 6.30635 16.9865 6.29358 16.9993C6.28082 17.0121 6.26802 17.0249 6.25521 17.0377C6.2424 17.0505 6.22957 17.0633 6.21671 17.0762C6.20385 17.089 6.19097 17.1019 6.17807 17.1148C6.16517 17.1277 6.15225 17.1406 6.13931 17.1536C6.12636 17.1665 6.1134 17.1795 6.10041 17.1925C6.08742 17.2055 6.07441 17.2185 6.06137 17.2315C6.04834 17.2446 6.03528 17.2576 6.02221 17.2707C6.00913 17.2838 5.99603 17.2969 5.9829 17.31C5.96978 17.3231 5.95663 17.3363 5.94346 17.3494C5.93029 17.3626 5.9171 17.3758 5.90389 17.389C5.89067 17.4022 5.87743 17.4155 5.86417 17.4287C5.85091 17.442 5.83763 17.4553 5.82432 17.4686C5.81101 17.4819 5.79768 17.4952 5.78433 17.5086C5.77097 17.5219 5.7576 17.5353 5.7442 17.5487C5.7308 17.5621 5.71737 17.5755 5.70393 17.589C5.69048 17.6024 5.67701 17.6159 5.66351 17.6294C5.65002 17.6429 5.6365 17.6564 5.62296 17.6699C5.60942 17.6835 5.59585 17.697 5.58226 17.7106C5.56867 17.7242 5.55506 17.7378 5.54142 17.7515C5.52778 17.7651 5.51412 17.7788 5.50043 17.7925C5.48675 17.8061 5.47304 17.8199 5.4593 17.8336C5.44557 17.8473 5.43181 17.8611 5.41803 17.8749C5.40424 17.8886 5.39044 17.9025 5.3766 17.9163C5.36277 17.9301 5.34892 17.944 5.33503 17.9579C5.32115 17.9717 5.30725 17.9856 5.29332 17.9996C5.27939 18.0135 5.26543 18.0275 5.25145 18.0414C5.23747 18.0554 5.22346 18.0694 5.20943 18.0835C5.1954 18.0975 5.18135 18.1115 5.16727 18.1256C5.15319 18.1397 5.13908 18.1538 5.12495 18.1679C5.11082 18.1821 5.09666 18.1962 5.08248 18.2104C5.0683 18.2246 5.05409 18.2388 5.03986 18.253C5.02563 18.2673 5.01137 18.2815 4.99708 18.2958C4.9828 18.3101 4.96849 18.3244 4.95415 18.3387C4.93982 18.3531 4.92546 18.3674 4.91107 18.3818C4.89668 18.3962 4.88227 18.4106 4.86783 18.4251C4.85339 18.4395 4.83893 18.454 4.82444 18.4685C4.80994 18.4829 4.79543 18.4975 4.78088 18.512C4.76634 18.5266 4.75177 18.5411 4.73717 18.5557C4.72258 18.5703 4.70795 18.5849 4.69331 18.5996C4.67866 18.6142 4.66398 18.6289 4.64928 18.6436C4.63458 18.6583 4.61985 18.673 4.60509 18.6878C4.59033 18.7026 4.57555 18.7173 4.56074 18.7322C4.54593 18.747 4.5311 18.7618 4.51623 18.7767C4.50137 18.7915 4.48648 18.8064 4.47156 18.8213C4.45664 18.8363 4.4417 18.8512 4.42673 18.8662C4.41175 18.8811 4.39675 18.8961 4.38173 18.9112C4.3667 18.9262 4.35165 18.9412 4.33656 18.9563C4.32148 18.9714 4.30637 18.9865 4.29123 19.0017C4.2761 19.0168 4.26093 19.032 4.24574 19.0472C4.23055 19.0623 4.21533 19.0776 4.20008 19.0928C4.18483 19.1081 4.16956 19.1233 4.15425 19.1386C4.13895 19.1539 4.12362 19.1693 4.10826 19.1846C4.09289 19.2 4.07751 19.2154 4.06209 19.2308C4.04667 19.2462 4.03123 19.2617 4.01575 19.2771C4.00028 19.2926 3.98478 19.3081 3.96925 19.3236C3.95372 19.3392 3.93816 19.3547 3.92257 19.3703C3.90698 19.3859 3.89137 19.4015 3.87572 19.4172C3.86008 19.4328 3.8444 19.4485 3.8287 19.4642C3.813 19.4799 3.79727 19.4956 3.78151 19.5114C3.76575 19.5271 3.74996 19.5429 3.73414 19.5588C3.71832 19.5746 3.70247 19.5904 3.68659 19.6063C3.67072 19.6222 3.65481 19.6381 3.63888 19.654C3.62294 19.67 3.60697 19.6859 3.59098 19.7019C3.57498 19.7179 3.55896 19.7339 3.54291 19.75C3.52685 19.766 3.51077 19.7821 3.49466 19.7982C3.47854 19.8144 3.4624 19.8305 3.44623 19.8467C3.43005 19.8628 3.41385 19.879 3.39762 19.8953C3.38138 19.9115 3.36512 19.9278 3.34883 19.9441C3.33253 19.9604 3.31621 19.9767 3.29986 19.993C3.2835 20.0094 3.26712 20.0258 3.25071 20.0422C3.23429 20.0586 3.21785 20.075 3.20137 20.0915C3.1849 20.108 3.16839 20.1245 3.15185 20.141C3.13532 20.1576 3.11875 20.1741 3.10215 20.1907C3.08556 20.2073 3.06893 20.224 3.05227 20.2406C3.03561 20.2573 3.01892 20.274 3.0022 20.2907C2.98548 20.3074 2.96872 20.3242 2.95194 20.341C2.93516 20.3577 2.91834 20.3746 2.9015 20.3914C2.88465 20.4082 2.86777 20.4251 2.85086 20.442C2.83396 20.4589 2.81702 20.4759 2.80004 20.4928C2.78307 20.5098 2.76607 20.5268 2.74904 20.5439C2.732 20.5609 2.71493 20.578 2.69784 20.5951C2.68074 20.6122 2.66361 20.6293 2.64645 20.6464L3.35355 21.3536Z" fill="#969696"/>
</svg>
