<svg width="20" height="18" viewBox="0 0 20 18" fill="none" xmlns="http://www.w3.org/2000/svg">
<path d="M13.5914 4.46951C14.6573 4.46951 15.5215 3.60541 15.5215 2.53948C15.5215 1.47356 14.6573 0.609457 13.5914 0.609457C12.5255 0.609457 11.6614 1.47356 11.6614 2.53948C11.6614 3.60541 12.5255 4.46951 13.5914 4.46951Z" stroke="#0D1222" stroke-width="1.2" stroke-miterlimit="10" stroke-linecap="round" stroke-linejoin="round"/>
<path d="M15.5113 2.53951H18.7314" stroke="#0D1222" stroke-width="1.2" stroke-miterlimit="10" stroke-linecap="round" stroke-linejoin="round"/>
<path d="M0.609581 2.53951H11.6615" stroke="#0D1222" stroke-width="1.2" stroke-miterlimit="10" stroke-linecap="round" stroke-linejoin="round"/>
<path d="M5.99324 10.93C7.05916 10.93 7.92326 10.0659 7.92326 8.99997C7.92326 7.93405 7.05916 7.06995 5.99324 7.06995C4.92731 7.06995 4.06321 7.93405 4.06321 8.99997C4.06321 10.0659 4.92731 10.93 5.99324 10.93Z" stroke="#0D1222" stroke-width="1.2" stroke-miterlimit="10" stroke-linecap="round" stroke-linejoin="round"/>
<path d="M7.92356 9H18.7317" stroke="#0D1222" stroke-width="1.2" stroke-miterlimit="10" stroke-linecap="round" stroke-linejoin="round"/>
<path d="M0.609581 9H4.07347" stroke="#0D1222" stroke-width="1.2" stroke-miterlimit="10" stroke-linecap="round" stroke-linejoin="round"/>
<path d="M13.5914 17.3905C14.6573 17.3905 15.5215 16.5264 15.5215 15.4605C15.5215 14.3945 14.6573 13.5304 13.5914 13.5304C12.5255 13.5304 11.6614 14.3945 11.6614 15.4605C11.6614 16.5264 12.5255 17.3905 13.5914 17.3905Z" stroke="#0D1222" stroke-width="1.2" stroke-miterlimit="10" stroke-linecap="round" stroke-linejoin="round"/>
<path d="M15.5113 15.4605H18.7314" stroke="#0D1222" stroke-width="1.2" stroke-miterlimit="10" stroke-linecap="round" stroke-linejoin="round"/>
<path d="M0.609581 15.4605H11.6615" stroke="#0D1222" stroke-width="1.2" stroke-miterlimit="10" stroke-linecap="round" stroke-linejoin="round"/>
</svg>
