<svg width="16" height="15" viewBox="0 0 16 15" fill="none" xmlns="http://www.w3.org/2000/svg">
<path d="M7.36091 0.362596C7.51682 -0.120826 8.20077 -0.120825 8.35668 0.362596L9.84484 4.97698C9.91466 5.19348 10.1164 5.34004 10.3439 5.33954L15.1923 5.32895C15.7002 5.32784 15.9116 5.97832 15.5 6.27598L11.5713 9.11723C11.387 9.25053 11.3099 9.48768 11.3807 9.70387L12.889 14.3117C13.047 14.7944 12.4937 15.1965 12.0834 14.897L8.16721 12.0386C7.98347 11.9045 7.73412 11.9045 7.55038 12.0386L3.63416 14.897C3.22388 15.1965 2.67055 14.7944 2.82857 14.3117L4.33689 9.70387C4.40766 9.48768 4.3306 9.25053 4.14628 9.11723L0.217605 6.27598C-0.193979 5.97832 0.0173761 5.32784 0.525315 5.32895L5.37372 5.33954C5.6012 5.34004 5.80293 5.19348 5.87275 4.97698L7.36091 0.362596Z" fill="#FFD43C"/>
</svg>
