<svg width="26" height="26" viewBox="0 0 26 26" fill="none" xmlns="http://www.w3.org/2000/svg">
<path d="M0.054736 5.09349C0.0973986 4.72579 0.260939 4.38039 0.542309 4.05625L4.44289 0.166593C4.74661 -0.0927171 4.97414 -0.049161 5.12549 0.296248L8.27846 6.19556C8.45216 6.54097 8.39731 6.87625 8.11593 7.20038L6.68572 8.62659C6.42568 8.8859 6.27433 9.22118 6.23065 9.63142C6.23065 10.2797 6.56688 11.1113 7.2383 12.1273C7.90973 13.1432 8.571 14.0073 9.2211 14.7214L10.2287 15.7576C10.5325 16.0605 10.9215 16.4332 11.3999 16.8759C11.8763 17.3186 12.6615 17.902 13.7555 18.6262C14.8495 19.3505 15.7119 19.7121 16.3397 19.7121C16.751 19.7121 17.0984 19.5713 17.3798 19.2907L19.0711 17.6052C19.3748 17.3023 19.6988 17.2588 20.0452 17.4756L25.7346 20.8142C25.8859 20.9013 25.9733 21.0137 25.9946 21.1545C26.0159 21.2953 25.9733 21.4199 25.8646 21.5273L21.964 25.4169C21.639 25.6975 21.2916 25.8606 20.9249 25.9021C19.8624 26.0541 18.6648 25.9082 17.3321 25.4645C15.9994 25.0209 14.7652 24.4324 13.6275 23.698C12.4899 22.9636 11.4335 22.2181 10.4583 21.4625C9.48317 20.7058 8.70305 20.0575 8.11797 19.5176L7.27284 18.7063C7.05648 18.4905 6.76902 18.1937 6.41146 17.8149C6.05391 17.4361 5.42921 16.6926 4.5404 15.5793C3.6516 14.4661 2.88266 13.3803 2.23256 12.3218C1.58246 11.2633 1.01972 10.0579 0.542309 8.70763C0.0659096 7.35739 -0.0966146 6.152 0.054736 5.09349Z" fill="white"/>
</svg>
