<svg width="176" height="32" viewBox="0 0 176 32" fill="none" xmlns="http://www.w3.org/2000/svg">
<rect x="144.5" y="0.5" width="31" height="31" stroke="white"/>
<g clip-path="url(#clip0_0_73)">
<path d="M159.877 11.9571C157.63 11.9571 155.817 13.7606 155.817 15.9965C155.817 18.2325 157.63 20.036 159.877 20.036C162.125 20.036 163.937 18.2325 163.937 15.9965C163.937 13.7606 162.125 11.9571 159.877 11.9571ZM159.877 18.6227C158.425 18.6227 157.237 17.445 157.237 15.9965C157.237 14.5481 158.421 13.3704 159.877 13.3704C161.333 13.3704 162.517 14.5481 162.517 15.9965C162.517 17.445 161.329 18.6227 159.877 18.6227ZM165.051 11.7918C165.051 12.3157 164.627 12.734 164.104 12.734C163.577 12.734 163.156 12.3122 163.156 11.7918C163.156 11.2715 163.581 10.8497 164.104 10.8497C164.627 10.8497 165.051 11.2715 165.051 11.7918ZM167.74 12.7481C167.68 11.486 167.39 10.368 166.461 9.44692C165.535 8.52583 164.411 8.23755 163.142 8.17427C161.835 8.10044 157.916 8.10044 156.608 8.17427C155.343 8.23403 154.219 8.52231 153.29 9.44341C152.361 10.3645 152.074 11.4825 152.011 12.7446C151.937 14.0454 151.937 17.9442 152.011 19.245C152.071 20.5071 152.361 21.625 153.29 22.5461C154.219 23.4672 155.34 23.7555 156.608 23.8188C157.916 23.8926 161.835 23.8926 163.142 23.8188C164.411 23.759 165.535 23.4707 166.461 22.5461C167.386 21.625 167.676 20.5071 167.74 19.245C167.814 17.9442 167.814 14.0489 167.74 12.7481ZM166.051 20.6407C165.775 21.3297 165.241 21.8606 164.545 22.1383C163.503 22.5497 161.029 22.4547 159.877 22.4547C158.725 22.4547 156.248 22.5461 155.209 22.1383C154.516 21.8641 153.983 21.3332 153.703 20.6407C153.29 19.6036 153.385 17.1426 153.385 15.9965C153.385 14.8504 153.294 12.386 153.703 11.3524C153.979 10.6633 154.513 10.1325 155.209 9.85474C156.251 9.44341 158.725 9.53833 159.877 9.53833C161.029 9.53833 163.506 9.44692 164.545 9.85474C165.238 10.129 165.771 10.6598 166.051 11.3524C166.464 12.3895 166.369 14.8504 166.369 15.9965C166.369 17.1426 166.464 19.6071 166.051 20.6407Z" fill="white"/>
</g>
<rect x="96.5" y="0.5" width="31" height="31" stroke="white"/>
<g clip-path="url(#clip1_0_73)">
<path d="M107.552 23V12.8795H104.158V23H107.552ZM105.856 11.4969C107.039 11.4969 107.776 10.7198 107.776 9.74862C107.754 8.75556 107.039 8 105.878 8C104.717 8 103.958 8.75558 103.958 9.74862C103.958 10.7198 104.695 11.4969 105.834 11.4969H105.856H105.856ZM109.431 23H112.825V17.3482C112.825 17.0458 112.847 16.7436 112.937 16.5274C113.182 15.923 113.741 15.2971 114.678 15.2971C115.907 15.2971 116.398 16.2252 116.398 17.5857V22.9999H119.792V17.1969C119.792 14.0883 118.118 12.6419 115.884 12.6419C114.053 12.6419 113.249 13.6563 112.803 14.3471H112.825V12.8793H109.431C109.476 13.829 109.431 22.9998 109.431 22.9998L109.431 23Z" fill="white"/>
</g>
<rect x="48.5" y="0.5" width="31" height="31" stroke="white"/>
<g clip-path="url(#clip2_0_73)">
<path d="M72.7793 10.7049C72.1123 10.9894 71.4049 11.1761 70.6806 11.2589C71.4351 10.8235 72.0144 10.134 72.2872 9.31247C71.5699 9.72228 70.7852 10.011 69.9669 10.1662C69.3003 9.48248 68.3507 9.05518 67.2997 9.05518C65.2817 9.05518 63.6455 10.6304 63.6455 12.5733C63.6455 12.849 63.6779 13.1175 63.7402 13.3751C60.7033 13.2283 58.0109 11.8277 56.2086 9.69918C55.8941 10.2188 55.7139 10.8232 55.7139 11.4679C55.7139 12.6885 56.3591 13.7653 57.3395 14.3962C56.7592 14.3787 56.1917 14.2278 55.6844 13.9561C55.6842 13.9708 55.6842 13.9856 55.6842 14.0004C55.6842 15.705 56.9437 17.1269 58.6152 17.4501C58.0772 17.591 57.5128 17.6117 56.9651 17.5104C57.4301 18.9082 58.7796 19.9253 60.3785 19.9537C59.1279 20.8973 57.5523 21.4598 55.8404 21.4598C55.5454 21.4598 55.2546 21.4431 54.9688 21.4106C56.5858 22.4088 58.5065 22.9913 60.57 22.9913C67.2912 22.9913 70.9665 17.6303 70.9665 12.9813C70.9665 12.8287 70.963 12.677 70.9559 12.5261C71.6713 12.0282 72.2887 11.4115 72.7793 10.7049Z" fill="white"/>
</g>
<rect x="0.5" y="0.5" width="31" height="31" stroke="white"/>
<g clip-path="url(#clip3_0_73)">
<path d="M13.7869 23V16.4308H12V14.0656H13.7869V12.0454C13.7869 10.4578 14.8425 9 17.2747 9C18.2595 9 18.9877 9.09177 18.9877 9.09177L18.9303 11.3005C18.9303 11.3005 18.1876 11.2935 17.3772 11.2935C16.5002 11.2935 16.3596 11.6864 16.3596 12.3385V14.0656H19L18.8851 16.4308H16.3596V23H13.7869Z" fill="white"/>
</g>
<defs>
<clipPath id="clip0_0_73">
<rect width="16" height="18" fill="white" transform="translate(152 7)"/>
</clipPath>
<clipPath id="clip1_0_73">
<rect width="16" height="15" fill="white" transform="translate(104 8)"/>
</clipPath>
<clipPath id="clip2_0_73">
<rect width="18" height="14" fill="white" transform="translate(55 9)"/>
</clipPath>
<clipPath id="clip3_0_73">
<rect width="7" height="14" fill="white" transform="translate(12 9)"/>
</clipPath>
</defs>
</svg>
