<svg width="23" height="20" viewBox="0 0 23 20" fill="none" xmlns="http://www.w3.org/2000/svg">
<path d="M21.9929 0.504249L19.5494 2.04021L19.1228 3.9565M16.687 14.8984V16.6245H4.10653M16.687 14.8984L14.9836 14.6549M16.687 14.8984L17.4979 11.2559M19.1228 3.9565H14.9836M19.1228 3.9565L18.3673 7.35023M14.9836 3.9565V14.6549M14.9836 3.9565H11.2555M14.9836 14.6549L11.2555 14.1221M11.2555 3.9565V14.1221M11.2555 3.9565H7.59724M11.2555 14.1221L7.59724 13.5993M7.59724 3.9565V13.5993M7.59724 3.9565H4.05068M7.59724 13.5993L4.05068 13.0925M4.05068 3.9565H0.504126L1.36161 7.35023M4.05068 3.9565V13.0925M4.05068 13.0925L2.7661 12.9089L2.34845 11.2559M1.36161 7.35023H18.3673M1.36161 7.35023L2.34845 11.2559M18.3673 7.35023L17.4979 11.2559M2.34845 11.2559H17.4979" stroke="#646464" stroke-linecap="round" stroke-linejoin="round"/>
<path d="M7.00191 18.101C7.00191 18.8942 6.39456 19.4959 5.69518 19.4959C4.99581 19.4959 4.38846 18.8942 4.38846 18.101C4.38846 17.3078 4.99581 16.7062 5.69518 16.7062C6.39456 16.7062 7.00191 17.3078 7.00191 18.101Z" stroke="#646464"/>
<path d="M16.3378 18.101C16.3378 18.8836 15.7227 19.4959 14.9909 19.4959C14.259 19.4959 13.6439 18.8836 13.6439 18.101C13.6439 17.3185 14.259 16.7062 14.9909 16.7062C15.7227 16.7062 16.3378 17.3185 16.3378 18.101Z" stroke="#646464"/>
</svg>
